<svg width="69" height="113" viewBox="0 0 69 113" fill="none" xmlns="http://www.w3.org/2000/svg">
<path d="M60.375 89H51.3281V57.4531H16.9219V89H7.92188V20.75H16.9219V50.0938H51.3281V20.75H60.375V89Z" fill="#282727"/>
<path d="M29.6602 40.6211L29.9883 42.8711L30.4688 40.8438L33.8438 28.9375H35.7422L39.0352 40.8438L39.5039 42.9062L39.8672 40.6094L42.5156 28.9375H44.7773L40.6406 46H38.5898L35.0742 33.5664L34.8047 32.2656L34.5352 33.5664L30.8906 46H28.8398L24.7148 28.9375H26.9648L29.6602 40.6211Z" fill="#282727"/>
<path d="M29.6602 75.6211L29.9883 77.8711L30.4688 75.8438L33.8438 63.9375H35.7422L39.0352 75.8438L39.5039 77.9062L39.8672 75.6094L42.5156 63.9375H44.7773L40.6406 81H38.5898L35.0742 68.5664L34.8047 67.2656L34.5352 68.5664L30.8906 81H28.8398L24.7148 63.9375H26.9648L29.6602 75.6211Z" fill="#282727"/>
</svg>
